<svg width="56" height="56" viewBox="0 0 56 56" fill="none" xmlns="http://www.w3.org/2000/svg">
<rect width="56" height="56" rx="16" fill="black"/>
<path d="M42.3366 35.1781C40.6763 36.0435 32.0756 39.5798 30.2445 40.5344C28.4134 41.4892 27.3962 41.4799 25.9497 40.7884C24.5033 40.0969 15.3505 36.3998 13.7018 35.6117C12.8778 35.218 12.4444 34.8855 12.4444 34.5714V31.4268C12.4444 31.4268 24.3602 28.8328 26.2839 28.1426C28.2074 27.4525 28.8749 27.4275 30.5119 28.0272C32.1491 28.627 41.9377 30.3931 43.5556 30.9856L43.5548 34.0858C43.5551 34.3967 43.1817 34.7377 42.3366 35.1781Z" fill="#912626"/>
<path d="M42.336 32.0521C40.6758 32.9171 32.0753 36.4536 30.2443 37.4081C28.4133 38.3629 27.3961 38.3535 25.9497 37.662C24.5032 36.971 15.3508 33.2733 13.7021 32.4857C12.0535 31.6976 12.019 31.1552 13.6385 30.5211C15.2579 29.8867 24.3601 26.3156 26.284 25.6255C28.2076 24.9356 28.8749 24.9104 30.5119 25.5103C32.149 26.1099 40.6982 29.5128 42.3159 30.1052C43.9341 30.6984 43.9962 31.1868 42.336 32.0521Z" fill="#C6302B"/>
<path d="M42.3366 30.0899C40.6763 30.9554 32.0756 34.4916 30.2445 35.4466C28.4134 36.401 27.3962 36.3917 25.9497 35.7002C24.5032 35.0091 15.3505 31.3116 13.7018 30.5235C12.8778 30.1298 12.4444 29.7977 12.4444 29.4836V26.3386C12.4444 26.3386 24.3602 23.7447 26.2839 23.0545C28.2074 22.3644 28.8749 22.3393 30.5119 22.9391C32.1492 23.5388 41.9378 25.3045 43.5556 25.8972L43.5548 28.9977C43.5551 29.3085 43.1817 29.6495 42.3366 30.0899Z" fill="#912626"/>
<path d="M42.336 26.9638C40.6758 27.8291 32.0753 31.3653 30.2443 32.3202C28.4133 33.2747 27.3961 33.2653 25.9497 32.5738C24.5032 31.8828 15.3508 28.1852 13.7021 27.3975C12.0535 26.6096 12.019 26.0671 13.6385 25.4327C15.2579 24.7987 24.3602 21.2274 26.284 20.5373C28.2076 19.8473 28.8749 19.8223 30.5119 20.422C32.149 21.0216 40.6982 24.4243 42.3159 25.017C43.9341 25.61 43.9962 26.0986 42.336 26.9638Z" fill="#C6302B"/>
<path d="M42.3366 24.813C40.6763 25.6783 32.0756 29.2148 30.2445 30.1698C28.4134 31.1242 27.3962 31.1149 25.9497 30.4234C24.5032 29.7323 15.3505 26.0346 13.7018 25.2469C12.8778 24.8528 12.4444 24.5206 12.4444 24.2069V21.0617C12.4444 21.0617 24.3602 18.4679 26.2839 17.7779C28.2074 17.0876 28.8749 17.0628 30.5119 17.6625C32.1492 18.2622 41.9378 20.0279 43.5556 20.6206L43.5548 23.721C43.5551 24.0315 43.1817 24.3725 42.3366 24.813Z" fill="#912626"/>
<path d="M42.336 21.687C40.6758 22.5522 32.0753 26.0887 30.2442 27.0432C28.4133 27.9977 27.3961 27.9883 25.9497 27.2972C24.5033 26.6057 15.3508 22.9083 13.7023 22.1205C12.0535 21.3327 12.0191 20.7901 13.6384 20.1558C15.2579 19.5217 24.3602 15.9509 26.284 15.2606C28.2076 14.5704 28.8749 14.5456 30.5119 15.1454C32.149 15.7451 40.6982 19.1478 42.3158 19.7405C43.9341 20.333 43.9962 20.8217 42.336 21.687Z" fill="#C6302B"/>
<path d="M31.8018 18.6277L29.1269 18.9054L28.5282 20.3462L27.5611 18.7384L24.4724 18.4609L26.7771 17.6297L26.0856 16.3539L28.2433 17.1978L30.2775 16.5319L29.7277 17.851L31.8018 18.6277ZM28.3685 25.6177L23.3765 23.5473L30.5296 22.4493L28.3685 25.6177ZM21.4475 19.4286C23.559 19.4286 25.2707 20.0921 25.2707 20.9105C25.2707 21.7291 23.559 22.3925 21.4475 22.3925C19.3359 22.3925 17.6242 21.729 17.6242 20.9105C17.6242 20.0921 19.3359 19.4286 21.4475 19.4286Z" fill="#1E2235"/>
<path d="M34.9629 19.0216L39.1965 20.6946L34.9666 22.3659L34.9629 19.0215" fill="#621B1C"/>
<path d="M30.2793 20.8743L34.9629 19.0216L34.9666 22.3659L34.5073 22.5456L30.2793 20.8743Z" fill="#9A2928"/>
</svg>
