<svg width="56" height="56" viewBox="0 0 56 56" fill="none" xmlns="http://www.w3.org/2000/svg">
<rect width="56" height="56" rx="16" fill="black"/>
<path d="M15.9803 31.0289C17.6518 31.0289 19.0068 29.6739 19.0068 28.0024C19.0068 26.3309 17.6518 24.9758 15.9803 24.9758C14.3088 24.9758 12.9538 26.3309 12.9538 28.0024C12.9538 29.6739 14.3088 31.0289 15.9803 31.0289Z" fill="#FF6309"/>
<path d="M37.6824 43.5556C39.354 43.5556 40.7091 42.2004 40.7091 40.5288C40.7091 38.8572 39.354 37.5021 37.6824 37.5021C36.0108 37.5021 34.6557 38.8572 34.6557 40.5288C34.6557 42.2004 36.0108 43.5556 37.6824 43.5556Z" fill="#FFB515"/>
<path d="M37.6798 18.4975C39.3513 18.4975 40.7063 17.1425 40.7063 15.471C40.7063 13.7995 39.3513 12.4445 37.6798 12.4445C36.0083 12.4445 34.6533 13.7995 34.6533 15.471C34.6533 17.1425 36.0083 18.4975 37.6798 18.4975Z" fill="#C90016"/>
<path d="M30.4479 20.5133C34.2165 20.5133 37.3432 23.3116 37.8611 26.9395H43.0462C42.8104 24.0888 41.6289 21.4317 39.6528 19.3363C38.3872 19.9808 36.831 19.9931 35.5091 19.2302C34.1862 18.4662 33.4187 17.1115 33.3451 15.6918C32.3951 15.4705 31.4229 15.359 30.4475 15.3594C28.5554 15.3594 26.727 15.7724 25.0642 16.5555L27.6607 21.0519C28.5466 20.6954 29.4929 20.5125 30.4479 20.5133Z" fill="#FF6309"/>
<path d="M22.9592 28.0024C22.9592 25.6164 24.0807 23.4878 25.8239 22.1155L23.2284 17.6197C22.6136 18.0493 22.0377 18.532 21.5073 19.0623C20.0052 20.5644 18.9281 22.3779 18.3354 24.3572C19.5296 25.1307 20.3204 26.4735 20.3204 28.0024C20.3204 29.5308 19.5296 30.8739 18.3354 31.6472C18.9281 33.6264 20.0052 35.4397 21.5073 36.9422C22.0373 37.4722 22.6127 37.9548 23.227 38.3844L25.8229 33.888C24.08 32.5159 22.9592 30.3876 22.9592 28.0024Z" fill="#FFB515"/>
<path d="M37.8614 29.0618C37.345 32.6909 34.2176 35.4911 30.4479 35.4911C29.4629 35.4911 28.5216 35.2993 27.6597 34.952L25.0634 39.4485C26.7258 40.2321 28.5552 40.6453 30.4477 40.6453C31.4364 40.6453 32.408 40.5313 33.3475 40.3125C33.4198 38.8909 34.1873 37.5338 35.5112 36.7694C36.8335 36.006 38.3904 36.018 39.6559 36.6639C41.6303 34.5681 42.8109 31.9115 43.0457 29.0618H37.8614Z" fill="#C90016"/>
</svg>
